<?xml version="1.0" encoding="UTF-8" standalone="no"?>
<!-- Created with Inkscape (http://www.inkscape.org/) -->

<svg
   version="1.1"
   id="svg1"
   width="1095.652"
   height="1365.3333"
   viewBox="0 0 1095.652 1365.3333"
   sodipodi:docname="STLVGMO_logomark.ai"
   xmlns:inkscape="http://www.inkscape.org/namespaces/inkscape"
   xmlns:sodipodi="http://sodipodi.sourceforge.net/DTD/sodipodi-0.dtd"
   xmlns="http://www.w3.org/2000/svg"
   xmlns:svg="http://www.w3.org/2000/svg">
  <defs
     id="defs1">
    <clipPath
       clipPathUnits="userSpaceOnUse"
       id="clipPath2">
      <path
         d="M 0,1024 H 821.739 V 0 H 0 Z"
         transform="translate(-400.09501,-1000.8919)"
         id="path2" />
    </clipPath>
    <clipPath
       clipPathUnits="userSpaceOnUse"
       id="clipPath4">
      <path
         d="M 0,1024 H 821.739 V 0 H 0 Z"
         transform="translate(-387.41081,-676.97532)"
         id="path4" />
    </clipPath>
    <clipPath
       clipPathUnits="userSpaceOnUse"
       id="clipPath6">
      <path
         d="M 0,1024 H 821.739 V 0 H 0 Z"
         transform="translate(-381.92861,-77.717277)"
         id="path6" />
    </clipPath>
  </defs>
  <sodipodi:namedview
     id="namedview1"
     pagecolor="#ffffff"
     bordercolor="#000000"
     borderopacity="0.25"
     inkscape:showpageshadow="2"
     inkscape:pageopacity="0.0"
     inkscape:pagecheckerboard="0"
     inkscape:deskcolor="#d1d1d1">
    <inkscape:page
       x="0"
       y="0"
       inkscape:label="1"
       id="page1"
       width="1095.652"
       height="1365.3333"
       margin="29.706133 289.38266 29.706667"
       bleed="0" />
  </sodipodi:namedview>
  <g
     id="layer-MC0"
     inkscape:groupmode="layer"
     inkscape:label="Layer 1">
    <path
       id="path1"
       d="m 0,0 168.233,0.828 c 17.119,0.084 31.078,-13.701 31.208,-30.819 l 1.817,-239.204 c 1.532,-20.621 -15.08,-33.356 -33.992,-33.483 l -208.68,-2.403 c -5.029,-0.034 -9.805,-2.211 -13.129,-5.985 l -45.884,-52.101 c -2.422,-2.751 -3.745,-6.298 -3.715,-9.963 l 1.606,-200.167 c 0.03,-3.676 1.417,-7.211 3.897,-9.925 l 48.158,-52.718 c 2.843,-3.113 6.874,-4.874 11.09,-4.847 l 149.017,0.949 c 4.523,0.028 8.168,3.715 8.146,8.238 l -0.442,91.316 c -0.022,4.543 -3.734,8.202 -8.276,8.158 l -59.195,-0.564 c -5.533,-0.053 -10.047,4.418 -10.047,9.952 v 48.518 c 0,5.41 4.372,9.802 9.782,9.828 l 143.398,1.683 c 5.418,0.026 9.834,-4.338 9.875,-9.755 l 1.74,-232.459 c 0.041,-5.513 -4.406,-10.009 -9.919,-10.027 l -279.836,-0.944 c -4.265,-0.014 -8.34,1.76 -11.235,4.892 l -80.63,89.405 c -2.6,2.813 -4.045,6.504 -4.045,10.335 l -2,275.945 c 0,3.678 1.332,7.232 3.749,10.005 l 77.791,89.248 c 2.781,3.19 6.797,5.034 11.029,5.065 l 199.378,1.441 c 8.87,0.064 16.048,7.233 16.122,16.103 l 0.975,116.644 c 0.096,11.439 -9.151,20.764 -20.591,20.764 H 69.17 c -11.434,0 -20.678,-9.316 -20.591,-20.749 l 0.801,-104.6 c 0.022,-2.946 -2.36,-5.347 -5.306,-5.347 h -63.966 c -2.91,0 -5.276,2.343 -5.306,5.252 l -1.759,174.126 C -27.108,-12.348 -15.017,-0.074 0,0"
       style="fill:#f9a922;fill-opacity:1;fill-rule:nonzero;stroke:none"
       transform="matrix(1.3333333,0,0,-1.3333333,533.46,30.8108)"
       clip-path="url(#clipPath2)" />
    <path
       id="path3"
       d="m 0,0 h 69.253 c 2.92,0 5.286,-2.367 5.286,-5.287 v -114.934 c 0,-3.864 -3.132,-6.996 -6.996,-6.996 H 38.391 c -3.592,0 -6.504,-2.912 -6.504,-6.504 v -83.818 c 0,-3.593 2.912,-6.504 6.504,-6.504 h 31.492 c 2.572,0 4.656,-2.085 4.656,-4.657 v -52.513 c 0,-5.381 -4.362,-9.744 -9.743,-9.744 H 0.957 c -5.922,0 -10.722,4.801 -10.722,10.722 l -1,269.47 C -10.765,-4.82 -5.945,0 0,0"
       style="fill:#f9a922;fill-opacity:1;fill-rule:nonzero;stroke:none"
       transform="matrix(1.3333333,0,0,-1.3333333,516.54773,462.6996)"
       clip-path="url(#clipPath4)" />
    <path
       id="path5"
       d="m 0,0 v 44.63 c 0,4.749 -3.849,8.598 -8.598,8.598 h -58.717 c -4.749,0 -8.598,-3.849 -8.598,-8.598 V 0 c 0,-4.748 3.849,-8.598 8.598,-8.598 H -8.598 C -3.849,-8.598 0,-4.748 0,0 m 7.169,181.128 h 67.544 c 4.589,0 8.309,-3.72 8.309,-8.309 V -45.963 c 0,-5.233 -4.242,-9.475 -9.475,-9.475 h -189.284 c -5.175,0 -9.393,4.153 -9.473,9.328 l -1.973,127.337 c -0.127,8.163 6.421,14.866 14.585,14.93 l 111.968,0.884 -0.509,75.722 c -0.031,4.611 3.697,8.365 8.308,8.365"
       style="fill:#f9a922;fill-opacity:1;fill-rule:nonzero;stroke:none"
       transform="matrix(1.3333333,0,0,-1.3333333,509.23813,1261.7103)"
       clip-path="url(#clipPath6)" />
  </g>
</svg>
